<svg width="21" height="21" viewBox="0 0 21 21" fill="none" xmlns="http://www.w3.org/2000/svg">
<path d="M13.7316 6.29179L13.8079 6.44653L13.9787 6.47135L20.2731 7.38612C20.2732 7.38615 20.2734 7.38617 20.2735 7.38619C20.5311 7.42471 20.705 7.66145 20.6664 7.91158L20.6659 7.91521C20.6515 8.01592 20.604 8.10888 20.5306 8.18085C20.5306 8.1809 20.5305 8.18095 20.5305 8.18101L15.9763 12.6212L15.8528 12.7416L15.882 12.9116L16.958 19.1822L16.9581 19.1825C17.0015 19.4345 16.8322 19.6746 16.5785 19.7183L16.5781 19.7184C16.4774 19.7359 16.3731 19.7194 16.2851 19.6726L16.2837 19.6719L10.6528 16.7114L10.5001 16.6311L10.3474 16.7114L4.71647 19.6719L4.71596 19.6721C4.63927 19.7126 4.55278 19.7308 4.46628 19.7246C4.37978 19.7185 4.29674 19.6882 4.22658 19.6372C4.15641 19.5863 4.10192 19.5167 4.0693 19.4363C4.03668 19.356 4.02723 19.2681 4.04201 19.1826L4.04208 19.1822L5.11818 12.9116L5.14736 12.7416L5.02384 12.6212L0.469034 8.18042L0.469014 8.18039C0.380464 8.09408 0.329804 7.97614 0.328166 7.85249C0.326531 7.72902 0.373905 7.60996 0.459894 7.52136C0.531818 7.44817 0.624668 7.40076 0.725248 7.38639L0.726035 7.38628L7.02143 6.47135L7.19219 6.44653L7.26852 6.29179L10.0819 0.588091C10.0821 0.58786 10.0822 0.58763 10.0823 0.587399C10.1981 0.356655 10.4783 0.263187 10.7069 0.37605L10.7073 0.376237C10.7985 0.421124 10.8724 0.494998 10.9173 0.58622L10.9174 0.586503L13.7316 6.29179Z" stroke="#2F2E41" stroke-width="0.656251"/>
<mask id="mask0_1_1012" style="mask-type:alpha" maskUnits="userSpaceOnUse" x="0" y="0" width="21" height="21">
<path d="M20.3213 7.06156L14.0259 6.14663L11.2117 0.441349C11.1348 0.285142 11.0084 0.158688 10.8522 0.0818244C10.4604 -0.111575 9.98433 0.0495912 9.78845 0.441349L6.97424 6.14663L0.678843 7.06156C0.505279 7.08636 0.346593 7.16818 0.225098 7.29215C0.0782179 7.44312 -0.00271976 7.64622 6.97873e-05 7.85683C0.00285934 8.06744 0.0891479 8.26833 0.239975 8.41536L4.79478 12.8561L3.71869 19.1267C3.69345 19.2726 3.70959 19.4226 3.76528 19.5598C3.82097 19.6969 3.91397 19.8157 4.03375 19.9027C4.15353 19.9897 4.29528 20.0414 4.44294 20.0519C4.5906 20.0625 4.73826 20.0314 4.86916 19.9623L10.5001 17.0018L16.131 19.9623C16.2847 20.0441 16.4632 20.0714 16.6343 20.0416C17.0657 19.9673 17.3558 19.5581 17.2814 19.1267L16.2053 12.8561L20.7602 8.41536C20.8841 8.29386 20.966 8.13518 20.9907 7.96161C21.0577 7.5277 20.7552 7.12603 20.3213 7.06156Z" fill="#808080"/>
</mask>
<g mask="url(#mask0_1_1012)">
<rect x="-2.625" y="-6.56245" width="13.125" height="35.4375" fill="#F6303F"/>
</g>
</svg>
